<svg width="194" height="45" viewBox="0 0 194 45" fill="none" xmlns="http://www.w3.org/2000/svg">
<rect width="194" height="45" fill="#08080B"/>
<circle cx="19" cy="22" r="15" fill="url(#paint0_linear_8_53)"/>
<circle cx="24" cy="17" r="5" fill="white"/>
<path d="M40.82 29L47.06 15H50.26L56.52 29H53.12L48 16.64H49.28L44.14 29H40.82ZM43.94 26L44.8 23.54H52L52.88 26H43.94ZM57.7525 29V14.16H60.8725V29H57.7525ZM69.1081 29.16C67.8815 29.16 66.8015 28.92 65.8681 28.44C64.9481 27.96 64.2348 27.3067 63.7281 26.48C63.2215 25.64 62.9681 24.6867 62.9681 23.62C62.9681 22.54 63.2148 21.5867 63.7081 20.76C64.2148 19.92 64.9015 19.2667 65.7681 18.8C66.6348 18.32 67.6148 18.08 68.7081 18.08C69.7615 18.08 70.7081 18.3067 71.5481 18.76C72.4015 19.2 73.0748 19.84 73.5681 20.68C74.0615 21.5067 74.3081 22.5 74.3081 23.66C74.3081 23.78 74.3015 23.92 74.2881 24.08C74.2748 24.2267 74.2615 24.3667 74.2481 24.5H65.5081V22.68H72.6081L71.4081 23.22C71.4081 22.66 71.2948 22.1733 71.0681 21.76C70.8415 21.3467 70.5281 21.0267 70.1281 20.8C69.7281 20.56 69.2615 20.44 68.7281 20.44C68.1948 20.44 67.7215 20.56 67.3081 20.8C66.9081 21.0267 66.5948 21.3533 66.3681 21.78C66.1415 22.1933 66.0281 22.6867 66.0281 23.26V23.74C66.0281 24.3267 66.1548 24.8467 66.4081 25.3C66.6748 25.74 67.0415 26.08 67.5081 26.32C67.9881 26.5467 68.5481 26.66 69.1881 26.66C69.7615 26.66 70.2615 26.5733 70.6881 26.4C71.1281 26.2267 71.5281 25.9667 71.8881 25.62L73.5481 27.42C73.0548 27.98 72.4348 28.4133 71.6881 28.72C70.9415 29.0133 70.0815 29.16 69.1081 29.16ZM74.7323 29L79.5523 22.68L79.4923 24.4L74.8723 18.24H78.3723L81.2923 22.26L79.9723 22.3L82.9923 18.24H86.3123L81.6723 24.34V22.66L86.4723 29H82.9323L79.8723 24.72L81.1723 24.9L78.1323 29H74.7323ZM87.9869 29V18.24H91.1069V29H87.9869ZM89.5469 16.74C88.9735 16.74 88.5069 16.5733 88.1469 16.24C87.7869 15.9067 87.6069 15.4933 87.6069 15C87.6069 14.5067 87.7869 14.0933 88.1469 13.76C88.5069 13.4267 88.9735 13.26 89.5469 13.26C90.1202 13.26 90.5869 13.42 90.9469 13.74C91.3069 14.0467 91.4869 14.4467 91.4869 14.94C91.4869 15.46 91.3069 15.8933 90.9469 16.24C90.6002 16.5733 90.1335 16.74 89.5469 16.74ZM97.6225 29.16C96.7025 29.16 95.8158 29.0533 94.9625 28.84C94.1225 28.6133 93.4558 28.3333 92.9625 28L94.0025 25.76C94.4958 26.0667 95.0758 26.32 95.7425 26.52C96.4225 26.7067 97.0892 26.8 97.7425 26.8C98.4625 26.8 98.9692 26.7133 99.2625 26.54C99.5692 26.3667 99.7225 26.1267 99.7225 25.82C99.7225 25.5667 99.6025 25.38 99.3625 25.26C99.1358 25.1267 98.8292 25.0267 98.4425 24.96C98.0558 24.8933 97.6292 24.8267 97.1625 24.76C96.7092 24.6933 96.2492 24.6067 95.7825 24.5C95.3158 24.38 94.8892 24.2067 94.5025 23.98C94.1158 23.7533 93.8025 23.4467 93.5625 23.06C93.3358 22.6733 93.2225 22.1733 93.2225 21.56C93.2225 20.88 93.4158 20.28 93.8025 19.76C94.2025 19.24 94.7758 18.8333 95.5225 18.54C96.2692 18.2333 97.1625 18.08 98.2025 18.08C98.9358 18.08 99.6825 18.16 100.443 18.32C101.203 18.48 101.836 18.7133 102.343 19.02L101.303 21.24C100.783 20.9333 100.256 20.7267 99.7225 20.62C99.2025 20.5 98.6958 20.44 98.2025 20.44C97.5092 20.44 97.0025 20.5333 96.6825 20.72C96.3625 20.9067 96.2025 21.1467 96.2025 21.44C96.2025 21.7067 96.3158 21.9067 96.5425 22.04C96.7825 22.1733 97.0958 22.28 97.4825 22.36C97.8692 22.44 98.2892 22.5133 98.7425 22.58C99.2092 22.6333 99.6758 22.72 100.143 22.84C100.609 22.96 101.029 23.1333 101.403 23.36C101.789 23.5733 102.103 23.8733 102.343 24.26C102.583 24.6333 102.703 25.1267 102.703 25.74C102.703 26.4067 102.503 27 102.103 27.52C101.703 28.0267 101.123 28.4267 100.363 28.72C99.6158 29.0133 98.7025 29.16 97.6225 29.16ZM110.512 29V15H113.192L119.152 24.88H117.732L123.592 15H126.252L126.292 29H123.252L123.232 19.66H123.792L119.112 27.52H117.652L112.872 19.66H113.552V29H110.512ZM134.513 29.16C133.366 29.16 132.346 28.92 131.453 28.44C130.573 27.96 129.873 27.3067 129.353 26.48C128.846 25.64 128.593 24.6867 128.593 23.62C128.593 22.54 128.846 21.5867 129.353 20.76C129.873 19.92 130.573 19.2667 131.453 18.8C132.346 18.32 133.366 18.08 134.513 18.08C135.646 18.08 136.66 18.32 137.553 18.8C138.446 19.2667 139.146 19.9133 139.653 20.74C140.16 21.5667 140.413 22.5267 140.413 23.62C140.413 24.6867 140.16 25.64 139.653 26.48C139.146 27.3067 138.446 27.96 137.553 28.44C136.66 28.92 135.646 29.16 134.513 29.16ZM134.513 26.6C135.033 26.6 135.5 26.48 135.913 26.24C136.326 26 136.653 25.66 136.893 25.22C137.133 24.7667 137.253 24.2333 137.253 23.62C137.253 22.9933 137.133 22.46 136.893 22.02C136.653 21.58 136.326 21.24 135.913 21C135.5 20.76 135.033 20.64 134.513 20.64C133.993 20.64 133.526 20.76 133.113 21C132.7 21.24 132.366 21.58 132.113 22.02C131.873 22.46 131.753 22.9933 131.753 23.62C131.753 24.2333 131.873 24.7667 132.113 25.22C132.366 25.66 132.7 26 133.113 26.24C133.526 26.48 133.993 26.6 134.513 26.6ZM142.499 29V18.24H145.479V21.28L145.059 20.4C145.379 19.64 145.892 19.0667 146.599 18.68C147.305 18.28 148.165 18.08 149.179 18.08V20.96C149.045 20.9467 148.925 20.94 148.819 20.94C148.712 20.9267 148.599 20.92 148.479 20.92C147.625 20.92 146.932 21.1667 146.399 21.66C145.879 22.14 145.619 22.8933 145.619 23.92V29H142.499ZM156.296 29.16C155.069 29.16 153.989 28.92 153.056 28.44C152.136 27.96 151.422 27.3067 150.916 26.48C150.409 25.64 150.156 24.6867 150.156 23.62C150.156 22.54 150.402 21.5867 150.896 20.76C151.402 19.92 152.089 19.2667 152.956 18.8C153.822 18.32 154.802 18.08 155.896 18.08C156.949 18.08 157.896 18.3067 158.736 18.76C159.589 19.2 160.262 19.84 160.756 20.68C161.249 21.5067 161.496 22.5 161.496 23.66C161.496 23.78 161.489 23.92 161.476 24.08C161.462 24.2267 161.449 24.3667 161.436 24.5H152.696V22.68H159.796L158.596 23.22C158.596 22.66 158.482 22.1733 158.256 21.76C158.029 21.3467 157.716 21.0267 157.316 20.8C156.916 20.56 156.449 20.44 155.916 20.44C155.382 20.44 154.909 20.56 154.496 20.8C154.096 21.0267 153.782 21.3533 153.556 21.78C153.329 22.1933 153.216 22.6867 153.216 23.26V23.74C153.216 24.3267 153.342 24.8467 153.596 25.3C153.862 25.74 154.229 26.08 154.696 26.32C155.176 26.5467 155.736 26.66 156.376 26.66C156.949 26.66 157.449 26.5733 157.876 26.4C158.316 26.2267 158.716 25.9667 159.076 25.62L160.736 27.42C160.242 27.98 159.622 28.4133 158.876 28.72C158.129 29.0133 157.269 29.16 156.296 29.16ZM170.113 18.08C170.966 18.08 171.726 18.2533 172.393 18.6C173.073 18.9333 173.606 19.4533 173.993 20.16C174.379 20.8533 174.573 21.7467 174.573 22.84V29H171.453V23.32C171.453 22.4533 171.259 21.8133 170.873 21.4C170.499 20.9867 169.966 20.78 169.273 20.78C168.779 20.78 168.333 20.8867 167.933 21.1C167.546 21.3 167.239 21.6133 167.013 22.04C166.799 22.4667 166.693 23.0133 166.693 23.68V29H163.573V18.24H166.553V21.22L165.993 20.32C166.379 19.6 166.933 19.0467 167.653 18.66C168.373 18.2733 169.193 18.08 170.113 18.08ZM182.599 29.16C181.452 29.16 180.432 28.92 179.539 28.44C178.659 27.96 177.959 27.3067 177.439 26.48C176.932 25.64 176.679 24.6867 176.679 23.62C176.679 22.54 176.932 21.5867 177.439 20.76C177.959 19.92 178.659 19.2667 179.539 18.8C180.432 18.32 181.452 18.08 182.599 18.08C183.732 18.08 184.746 18.32 185.639 18.8C186.532 19.2667 187.232 19.9133 187.739 20.74C188.246 21.5667 188.499 22.5267 188.499 23.62C188.499 24.6867 188.246 25.64 187.739 26.48C187.232 27.3067 186.532 27.96 185.639 28.44C184.746 28.92 183.732 29.16 182.599 29.16ZM182.599 26.6C183.119 26.6 183.586 26.48 183.999 26.24C184.412 26 184.739 25.66 184.979 25.22C185.219 24.7667 185.339 24.2333 185.339 23.62C185.339 22.9933 185.219 22.46 184.979 22.02C184.739 21.58 184.412 21.24 183.999 21C183.586 20.76 183.119 20.64 182.599 20.64C182.079 20.64 181.612 20.76 181.199 21C180.786 21.24 180.452 21.58 180.199 22.02C179.959 22.46 179.839 22.9933 179.839 23.62C179.839 24.2333 179.959 24.7667 180.199 25.22C180.452 25.66 180.786 26 181.199 26.24C181.612 26.48 182.079 26.6 182.599 26.6Z" fill="white"/>
<defs>
<linearGradient id="paint0_linear_8_53" x1="19" y1="7" x2="19" y2="37" gradientUnits="userSpaceOnUse">
<stop stop-color="#008A82"/>
<stop offset="1" stop-color="#579674"/>
</linearGradient>
</defs>
</svg>
